<?xml version="1.0" standalone="no"?>
<!DOCTYPE svg PUBLIC "-//W3C//DTD SVG 20010904//EN"
 "http://www.w3.org/TR/2001/REC-SVG-20010904/DTD/svg10.dtd">
<svg version="1.0" xmlns="http://www.w3.org/2000/svg"
 width="920.000000pt" height="1448.000000pt" viewBox="0 0 920.000000 1448.000000"
 preserveAspectRatio="xMidYMid meet">
<metadata>
Created by potrace 1.15, written by Peter Selinger 2001-2017
</metadata>
<g transform="translate(0.000000,1448.000000) scale(0.100000,-0.100000)"
fill="#000000" stroke="none">
<path d="M5550 14035 c-65 -15 -109 -32 -130 -49 -19 -17 -113 -48 -105 -35 4
5 2 9 -4 9 -5 0 -13 -5 -16 -10 -4 -6 -30 -25 -58 -44 -139 -90 -470 -427
-512 -521 -29 -66 -60 -155 -82 -235 -15 -56 -18 -113 -19 -395 0 -181 -4
-348 -8 -370 -9 -43 -9 -46 -31 -279 -8 -87 -17 -161 -20 -165 -9 -16 -37
-199 -36 -238 1 -24 -7 -62 -18 -85 -18 -41 -25 -100 -22 -200 2 -84 16 -51
16 36 0 56 4 89 13 98 10 10 12 1 11 -53 -1 -36 3 -75 10 -86 6 -12 11 -31 11
-41 0 -16 -5 -19 -22 -15 -22 5 -22 5 -5 -9 11 -8 21 -33 24 -58 6 -43 5 -44
-13 -30 -18 14 -18 14 -5 -2 11 -15 11 -37 2 -130 -7 -62 -14 -114 -16 -117
-3 -2 0 -10 6 -18 9 -9 8 -13 0 -13 -17 0 -3 -129 17 -160 9 -14 27 -47 39
-73 13 -27 32 -61 43 -77 32 -45 36 -41 -90 -107 -19 -10 -37 -21 -40 -24 -3
-4 -39 -24 -80 -45 -91 -46 -129 -76 -168 -130 -42 -58 -47 -80 -23 -96 12 -7
21 -18 21 -25 0 -6 5 -13 10 -15 7 -2 7 -15 0 -38 -21 -73 -2 -137 57 -200 37
-40 38 -43 19 -59 -8 -7 -12 -20 -9 -29 2 -10 -5 -28 -16 -41 -12 -13 -21 -30
-21 -38 0 -8 -4 -12 -10 -8 -10 6 -45 -54 -67 -115 -16 -43 -16 -43 -1 -34 6
4 0 -8 -15 -28 -15 -19 -27 -40 -27 -46 0 -6 -6 -17 -14 -24 -18 -19 -55 -91
-104 -208 -49 -118 -61 -157 -111 -350 -22 -85 -42 -164 -46 -175 -3 -11 1 -8
10 8 8 15 18 27 20 27 6 0 -24 -71 -45 -105 -10 -16 -30 -66 -45 -110 -15 -44
-31 -84 -36 -90 -5 -5 -9 -24 -9 -41 0 -18 -5 -36 -10 -39 -7 -4 -9 2 -4 19 3
14 3 26 0 26 -12 0 -70 -129 -106 -235 -21 -63 -55 -137 -78 -174 -23 -35 -42
-68 -42 -73 0 -4 -28 -8 -62 -8 -35 0 -81 -1 -103 -2 -38 -3 -40 -1 -37 23 3
30 -65 164 -113 224 -18 22 -45 66 -60 98 -17 37 -51 82 -96 126 -62 61 -70
73 -83 129 -15 67 -35 104 -123 227 -31 44 -77 116 -101 160 -63 114 -203 335
-213 336 -5 1 -15 2 -21 3 -32 5 -116 -29 -172 -70 -33 -24 -92 -63 -131 -86
-38 -22 -92 -64 -118 -92 -33 -34 -47 -44 -42 -29 4 14 -1 29 -17 45 -13 13
-17 17 -10 8 25 -33 14 -63 -46 -120 -32 -30 -67 -66 -78 -80 -36 -47 -213
-186 -297 -232 -123 -69 -123 -69 -50 -136 139 -130 246 -265 348 -437 59
-101 181 -257 315 -404 58 -64 121 -136 139 -161 19 -25 53 -63 75 -85 42 -41
155 -198 191 -265 11 -20 60 -100 110 -178 l90 -142 22 23 c12 12 142 166 290
343 415 497 505 603 699 829 99 115 251 293 338 395 87 102 224 262 305 355
81 94 193 225 250 293 56 67 113 130 127 138 31 21 87 11 134 -24 52 -39 542
-460 1269 -1090 157 -136 371 -321 477 -412 105 -91 268 -231 362 -313 107
-93 175 -145 184 -142 10 4 30 -14 59 -50 24 -30 72 -83 107 -117 34 -34 62
-70 62 -80 0 -10 5 -18 11 -18 5 0 7 5 3 12 -4 7 -3 8 5 4 6 -4 9 -11 7 -15
-3 -4 28 -41 69 -81 41 -40 72 -77 69 -82 -3 -4 2 -5 11 -2 11 5 18 0 22 -15
3 -11 9 -18 14 -15 5 3 9 0 9 -6 0 -6 4 -9 9 -5 6 3 8 -3 6 -14 -5 -24 20 -48
31 -30 5 8 3 9 -6 4 -9 -6 -11 -4 -6 4 6 9 13 8 27 -5 20 -18 24 -26 12 -22
-20 6 -137 -89 -217 -177 -49 -53 -99 -103 -111 -111 -13 -8 -67 -20 -121 -25
-113 -12 -145 -27 -250 -120 -77 -68 -80 -70 -218 -110 -121 -35 -210 -76
-292 -134 l-63 -45 -69 10 c-55 8 -80 6 -123 -6 -30 -9 -88 -24 -129 -35 -41
-11 -122 -33 -180 -49 -58 -16 -123 -32 -145 -36 -22 -3 -62 -12 -90 -20 -27
-7 -61 -15 -75 -18 -14 -3 -41 -10 -60 -15 -19 -6 -56 -11 -82 -11 -65 0 -73
-17 -37 -84 23 -42 77 -196 104 -296 7 -24 7 -25 -9 -5 -15 19 -16 19 -9 1 4
-12 2 -17 -3 -13 -6 3 -9 -14 -7 -46 1 -29 3 -72 2 -96 0 -36 3 -42 16 -37 13
4 14 2 5 -14 -7 -13 -7 -21 0 -25 8 -5 7 -11 -1 -21 -10 -12 -8 -13 7 -8 10 4
16 4 12 0 -4 -5 -3 -19 3 -33 6 -16 6 -22 -1 -18 -6 3 -18 -7 -28 -24 -9 -17
-21 -31 -26 -31 -5 0 -15 -8 -23 -17 -8 -10 -12 -13 -9 -7 5 10 -45 11 -62 0
-12 -7 -45 28 -35 38 10 10 -29 -5 -44 -17 -9 -6 -13 -5 -13 4 0 11 -2 11 -10
-1 -5 -8 -13 -15 -18 -15 -5 0 -16 -8 -26 -18 -10 -9 -22 -15 -27 -12 -5 4 -9
-2 -10 -12 0 -10 -3 -13 -6 -6 -3 10 -8 9 -19 -2 -13 -13 -13 -20 -3 -49 7
-19 16 -33 21 -30 5 3 6 10 2 15 -3 5 -1 16 6 24 9 11 7 12 -9 8 -12 -3 -21
-1 -21 6 0 6 3 10 8 10 44 -7 85 19 76 49 -5 15 -4 15 5 1 6 -10 7 -27 1 -45
-4 -16 -9 -22 -9 -14 -1 13 -3 13 -10 0 -6 -8 -7 -18 -5 -22 3 -4 -2 -5 -10
-2 -11 4 -16 0 -16 -15 0 -12 -5 -21 -11 -21 -5 0 -7 -6 -3 -13 6 -9 4 -9 -7
-1 -8 7 -22 8 -34 3 -16 -6 -17 -8 -3 -8 9 -1 19 -5 23 -11 3 -5 -6 -5 -24 1
-17 6 -29 16 -28 22 1 7 -6 11 -17 9 -13 -2 -16 1 -10 10 6 11 5 11 -8 0 -16
-13 -13 -56 3 -46 5 3 6 10 3 16 -4 6 -1 8 7 6 8 -3 13 -11 11 -17 -1 -7 2
-10 7 -7 5 4 12 2 16 -3 3 -6 -6 -8 -21 -5 -19 3 -24 1 -18 -8 4 -7 -2 -5 -13
5 -22 19 -26 45 -10 65 8 11 6 11 -16 1 -15 -7 -25 -15 -22 -18 2 -4 -11 -5
-30 -3 -19 2 -36 -1 -40 -9 -6 -8 -4 -10 5 -4 8 5 11 4 6 -3 -4 -6 -13 -9 -20
-6 -7 3 -19 -2 -26 -10 -7 -9 -16 -13 -21 -10 -5 3 -9 0 -9 -7 0 -6 -8 -9 -19
-6 -15 3 -18 1 -14 -11 4 -10 2 -13 -5 -8 -13 8 -55 -17 -46 -27 4 -4 -3 -5
-15 -2 -11 2 -21 0 -21 -6 0 -5 -7 -9 -15 -9 -8 0 -24 -9 -35 -20 -11 -11 -29
-20 -41 -20 -13 0 -18 -4 -13 -12 4 -8 3 -10 -2 -5 -5 5 -9 13 -9 19 0 6 -9
13 -20 15 -11 2 -27 5 -35 7 -8 2 -24 -4 -34 -13 -11 -9 -16 -10 -12 -4 4 7 2
13 -3 13 -6 0 -11 -5 -11 -12 0 -6 -9 -3 -20 7 -17 15 -22 16 -37 4 -15 -12
-16 -12 -8 1 5 8 10 23 10 33 2 21 50 64 82 73 19 5 21 11 17 47 -3 23 -6 52
-7 64 -2 25 -12 22 -20 -7 -3 -11 -1 -18 4 -14 5 3 9 0 9 -6 0 -7 -8 -9 -19
-5 -39 12 -61 14 -61 4 0 -6 -6 -7 -12 -2 -20 12 -208 10 -198 -2 6 -7 -5 -9
-31 -7 -28 3 -39 9 -39 21 0 14 -2 14 -10 1 -7 -12 -10 -8 -10 14 0 16 3 27 6
24 3 -4 30 5 60 18 30 13 63 24 73 24 10 0 34 11 54 24 19 13 61 32 93 41 33
9 68 25 80 36 11 11 23 17 26 14 2 -3 5 2 5 10 0 10 -4 12 -10 6 -13 -13 -39
-2 -30 13 4 6 -1 5 -10 -3 -14 -11 -17 -11 -17 0 0 11 -2 11 -10 -1 -7 -11
-10 -11 -10 -2 0 7 -4 10 -10 7 -6 -3 -10 1 -10 11 0 13 3 14 15 4 8 -7 15 -8
15 -3 0 6 15 9 34 8 24 -1 33 2 29 12 -3 7 -10 10 -16 6 -5 -3 -35 -6 -66 -5
-31 0 -50 -2 -42 -5 8 -3 -1 -11 -25 -19 -49 -17 -49 -17 -70 3 -23 23 -75 26
-92 4 -9 -11 -11 -12 -6 -1 7 13 5 13 -9 1 -9 -7 -17 -10 -17 -6 0 4 -8 1 -17
-6 -11 -10 -14 -10 -9 -1 4 6 4 12 -1 12 -12 -1 -40 -24 -39 -32 1 -3 -3 -10
-8 -15 -5 -4 -7 -3 -3 2 3 6 2 17 -2 23 -6 10 -11 9 -22 -4 -8 -10 -9 -15 -3
-11 6 3 11 0 11 -7 0 -7 -6 -13 -13 -13 -7 0 -12 5 -11 11 1 5 -7 11 -18 13
-11 1 -14 0 -7 -3 19 -9 14 -23 -8 -19 -11 2 -22 -1 -25 -6 -4 -5 -10 -7 -15
-4 -5 3 -11 1 -15 -5 -3 -5 -15 -10 -26 -10 -40 0 -17 -15 26 -16 32 -1 45 2
45 11 0 8 4 16 9 19 5 3 9 -5 9 -19 0 -16 -7 -25 -22 -28 -16 -3 -15 -5 7 -6
23 -1 27 3 27 24 0 14 4 25 9 25 5 0 7 -10 5 -22 -2 -13 -2 -17 2 -10 3 6 10
12 15 12 6 0 7 -4 4 -10 -11 -18 15 -10 32 9 9 11 22 17 28 14 7 -2 16 1 21 8
4 7 3 10 -4 5 -6 -3 -14 -1 -18 5 -4 8 -3 9 4 5 7 -4 12 -1 12 6 0 10 3 9 9
-2 6 -8 7 -18 5 -22 -3 -4 2 -8 11 -8 10 0 13 5 9 12 -4 7 -3 8 4 4 25 -15 11
-28 -28 -24 -32 3 -41 0 -46 -14 -3 -10 -9 -18 -12 -18 -4 0 -62 -7 -129 -15
-104 -13 -125 -13 -155 -1 -56 24 -72 50 -73 116 0 32 5 63 10 69 7 7 9 -10 7
-51 -3 -39 0 -58 6 -54 6 3 14 1 18 -5 5 -8 3 -9 -5 -4 -9 5 -12 2 -9 -11 1
-10 18 -26 36 -37 30 -17 32 -18 38 -2 4 10 1 21 -7 27 -11 7 -9 8 6 3 11 -3
16 -3 12 1 -4 4 -1 14 6 23 10 14 10 14 -4 3 -14 -10 -18 -10 -23 3 -3 9 -10
14 -14 11 -7 -4 -8 19 -3 67 1 4 15 13 31 18 17 6 30 15 30 20 0 4 7 5 17 2
10 -4 14 -2 10 4 -7 11 57 43 98 50 11 2 27 6 35 10 8 3 17 7 20 8 46 16 170
94 170 107 0 4 14 8 31 8 32 0 59 19 59 42 0 11 2 11 9 0 7 -11 9 -11 14 2 4
9 14 16 24 16 14 0 15 2 4 9 -8 5 -23 3 -38 -4 -22 -12 -28 -11 -46 6 -15 14
-23 16 -28 7 -4 -6 -15 -13 -23 -14 -9 -1 -14 2 -10 7 3 5 0 9 -6 9 -6 0 -8 4
-5 10 3 6 -1 7 -9 4 -9 -3 -14 -9 -12 -13 3 -4 -4 -12 -14 -19 -14 -9 -21 -8
-30 3 -13 16 -30 11 -30 -8 0 -7 4 -6 11 3 9 13 10 13 6 0 -2 -8 -10 -14 -17
-12 -7 1 -19 -3 -28 -10 -12 -10 -14 -10 -8 0 4 6 2 12 -3 12 -6 0 -11 -6 -11
-12 0 -9 -4 -8 -10 2 -6 9 -10 10 -10 3 0 -7 -12 -12 -27 -13 -16 0 -53 -1
-83 -1 -50 -1 -52 -2 -20 -9 19 -4 46 -12 60 -19 23 -10 22 -10 -10 -4 -19 4
-53 7 -75 7 -22 1 -45 4 -51 8 -6 4 -24 5 -40 3 -16 -2 -39 -4 -51 -4 -13 -1
-23 -7 -23 -15 0 -20 -26 -40 -35 -26 -3 6 -11 7 -17 4 -7 -4 -6 -9 2 -14 8
-5 3 -10 -14 -14 -30 -7 -33 -20 -8 -36 15 -10 15 -11 -3 -7 -11 3 -36 12 -56
20 l-36 16 5 -50 c4 -47 -7 -192 -44 -534 -38 -364 -45 -465 -46 -750 -1 -252
1 -312 16 -375 26 -113 34 -170 25 -170 -5 0 -9 -20 -9 -44 0 -41 8 -56 35
-63 75 -19 121 -36 145 -53 16 -11 53 -32 83 -46 l55 -24 7 -68 c5 -37 9 -227
10 -422 2 -350 15 -593 55 -1080 23 -277 38 -386 85 -650 36 -198 64 -389 120
-810 20 -146 38 -273 41 -282 5 -17 94 -18 1688 -18 l1682 0 -28 163 c-33 197
-62 445 -83 710 -8 109 -18 203 -21 209 -4 5 -14 72 -24 147 -21 158 -25 477
-8 616 6 50 12 225 13 390 1 165 6 370 11 455 10 186 10 194 0 392 -7 138 -6
157 8 165 13 7 17 31 20 119 6 166 -13 271 -144 799 -22 88 -47 183 -56 210
-35 109 -179 421 -212 458 -26 29 -21 32 263 142 185 72 413 187 569 289 83
53 161 99 175 103 14 3 43 15 65 25 21 11 35 15 31 9 -8 -14 -9 -15 71 13 128
43 238 105 389 219 84 64 221 190 236 219 8 14 18 129 46 488 3 47 9 87 13 90
3 3 16 32 29 65 12 33 29 67 37 76 12 13 13 28 5 82 -11 74 -58 163 -121 228
-33 34 -40 51 -74 191 -20 84 -48 176 -61 203 -13 28 -24 61 -24 74 -1 13 -48
142 -106 287 -58 144 -105 266 -105 270 0 4 -8 16 -17 26 -14 15 -14 19 -3 16
33 -7 -11 127 -68 210 -33 50 -49 84 -58 132 -7 36 -20 83 -30 105 -16 38 -28
188 -13 163 7 -11 29 51 29 82 0 35 -32 136 -49 155 -10 11 -24 49 -31 85 -10
55 -10 77 4 143 15 70 15 89 1 197 -37 306 -162 659 -275 783 -27 29 -68 66
-92 82 -24 16 -69 51 -101 77 -32 26 -66 48 -75 48 -8 0 -12 3 -8 7 4 4 -8 13
-26 20 -18 8 -23 11 -10 9 23 -5 23 -4 5 16 -10 11 -53 43 -95 71 -43 27 -78
51 -78 54 0 7 65 -30 87 -49 16 -15 29 -19 50 -14 20 5 24 4 14 -3 -12 -8 -9
-11 12 -16 15 -4 27 -11 27 -16 0 -5 9 -9 20 -9 11 0 20 -5 20 -11 0 -5 -4 -8
-8 -5 -5 3 -9 -1 -9 -9 0 -19 7 -19 22 1 11 15 12 15 18 -5 3 -11 1 -21 -4
-21 -6 0 1 -11 15 -25 31 -31 46 -33 20 -3 -18 21 -18 21 0 15 14 -6 17 -3 12
8 -3 9 0 15 9 15 11 0 10 8 -6 35 -20 33 -20 35 -3 35 14 0 9 9 -21 41 -26 26
-77 59 -143 91 -56 28 -105 54 -107 59 -3 4 -12 6 -19 3 -8 -3 -17 0 -22 7 -4
8 -3 10 4 5 7 -4 12 -2 12 3 0 6 -6 11 -12 11 -7 0 -35 21 -63 46 -27 26 -39
39 -25 30 14 -9 32 -19 40 -23 8 -4 18 -11 21 -16 4 -5 11 -8 17 -6 15 6 -17
79 -34 79 -8 0 -14 5 -14 11 0 5 5 7 10 4 6 -3 10 1 10 9 0 9 -7 16 -15 16 -8
0 -18 12 -21 26 l-7 27 -13 -29 c-14 -29 -13 -16 2 39 4 12 3 18 -2 14 -9 -9
-42 179 -43 245 -1 20 -6 38 -13 40 -16 6 -18 36 -16 238 3 279 -2 443 -17
622 -16 172 -20 194 -42 216 -7 8 -11 18 -7 23 3 5 -5 43 -17 85 -16 53 -19
78 -11 86 11 11 -4 74 -39 155 -13 32 -16 50 -9 57 7 7 15 4 25 -10 23 -30 18
-1 -14 89 -37 106 -107 252 -141 297 -24 30 -90 159 -90 173 0 3 -18 36 -39
74 -22 38 -44 88 -50 111 -7 23 -32 70 -56 104 -24 35 -62 90 -84 123 -108
162 -252 289 -446 391 -141 75 -283 108 -465 108 -69 1 -131 5 -139 10 -23 15
-154 46 -191 45 -19 -1 -60 -7 -90 -14z m145 -504 c-3 -6 -13 -11 -21 -11 -8
0 -14 -4 -14 -9 0 -6 12 -6 28 -2 35 10 149 5 184 -8 14 -5 29 -7 34 -3 4 4 4
2 1 -5 -5 -7 11 -20 40 -34 58 -27 186 -127 178 -139 -3 -5 4 -11 15 -15 11
-4 18 -11 15 -16 -3 -5 1 -6 9 -3 11 4 19 -3 26 -20 5 -15 16 -29 25 -32 10
-4 13 -14 9 -30 -6 -23 2 -30 29 -25 5 1 6 -3 3 -8 -3 -5 1 -12 9 -15 8 -3 14
-11 13 -18 -2 -6 6 -14 17 -16 18 -4 18 -3 5 14 -14 17 -14 18 2 6 9 -8 14
-20 12 -27 -4 -9 8 -18 38 -26 24 -7 36 -14 26 -16 -9 -2 -33 3 -53 11 -48 20
-48 20 -21 -9 20 -21 38 -27 100 -34 87 -10 100 -18 117 -69 6 -20 16 -43 22
-49 5 -7 7 -13 4 -13 -3 0 4 -27 14 -60 14 -44 17 -78 14 -126 -3 -37 -1 -72
4 -78 5 -6 12 -25 15 -41 2 -17 5 -32 6 -35 1 -3 3 -9 4 -15 0 -5 7 -21 15
-34 7 -13 8 -20 2 -17 -6 4 -4 -9 4 -29 9 -19 13 -35 10 -35 -2 0 0 -12 5 -27
9 -25 9 -26 -4 -10 -13 16 -14 14 -11 -22 1 -23 7 -47 13 -53 14 -18 19 -55 7
-54 -5 1 -9 9 -9 19 1 14 -1 15 -13 5 -12 -10 -11 -14 6 -31 19 -19 19 -21 3
-34 -16 -12 -15 -12 3 -6 17 6 18 5 7 -9 -7 -9 -11 -29 -10 -46 2 -34 13 -33
13 0 0 12 7 23 15 25 9 3 11 1 4 -4 -5 -4 -10 -22 -9 -40 0 -17 -2 -30 -6 -27
-10 6 -5 -24 6 -33 4 -4 5 -2 0 6 -5 9 -4 12 3 7 15 -9 3 -38 -12 -29 -8 4 -8
2 1 -7 12 -13 7 -43 -7 -35 -4 2 -7 -5 -6 -16 0 -11 7 -24 15 -28 11 -7 12
-25 8 -77 -4 -38 -7 -75 -7 -82 0 -7 -3 -11 -7 -9 -5 3 -8 -11 -8 -31 -1 -49
-26 -137 -35 -122 -7 11 -21 -9 -24 -32 -1 -4 -10 -18 -21 -30 -10 -13 -19
-25 -20 -28 0 -3 -3 -4 -8 -2 -4 1 -6 -3 -5 -9 2 -6 -12 -20 -30 -30 -19 -11
-30 -14 -26 -7 4 7 4 10 -1 6 -4 -4 -13 -18 -19 -30 -7 -13 -18 -23 -26 -23
-8 -1 -13 -7 -12 -15 2 -8 0 -12 -4 -7 -4 4 -21 -5 -37 -20 -17 -16 -27 -23
-23 -16 3 6 2 15 -4 18 -6 4 -10 3 -9 -2 4 -21 -3 -31 -22 -36 -12 -3 -18 -10
-15 -16 4 -5 2 -12 -3 -15 -5 -4 -13 -1 -17 5 -5 8 -3 9 7 4 8 -5 10 -4 6 0
-4 5 -15 10 -24 11 -11 2 -12 -1 -5 -8 12 -12 4 -41 -9 -32 -5 3 -6 10 -3 16
4 7 2 8 -5 4 -6 -4 -8 -12 -5 -18 5 -7 0 -9 -15 -5 -18 4 -20 3 -10 -9 10 -12
9 -13 -4 -9 -8 4 -18 1 -23 -6 -5 -8 -3 -10 7 -4 8 5 10 4 6 0 -14 -16 -39
-15 -33 1 4 9 2 12 -5 8 -6 -3 -8 -15 -6 -26 3 -11 3 -17 0 -14 -3 3 -20 -2
-37 -11 -17 -10 -34 -16 -38 -15 -5 1 -8 -3 -8 -9 0 -5 -4 -7 -10 -4 -5 3 -10
1 -10 -5 0 -6 -4 -9 -9 -5 -6 3 -14 -3 -20 -12 -5 -10 -12 -17 -15 -15 -14 6
-37 1 -32 -7 3 -4 -7 -6 -22 -3 l-27 6 25 6 c67 16 -80 20 -190 5 -95 -13
-233 -15 -246 -4 -11 9 -14 8 -14 0 0 -7 -5 -9 -12 -4 -7 4 -21 9 -32 10 -19
3 -63 32 -101 67 -12 11 -58 54 -101 95 -44 40 -83 77 -87 81 -63 58 -116 153
-170 300 -27 74 -60 164 -73 200 -20 52 -23 77 -19 124 7 71 30 163 47 185 22
29 48 52 48 43 0 -17 127 -14 162 4 18 10 39 19 46 20 17 3 44 26 37 32 -3 3
1 12 8 20 10 13 9 15 -8 8 -36 -14 -75 -19 -75 -10 0 5 -19 10 -41 11 -62 4
-89 39 -57 71 18 18 26 15 33 -17 10 -49 23 -52 115 -36 92 16 122 34 101 59
-7 8 -10 20 -6 25 4 7 -1 8 -12 4 -13 -4 -10 0 7 16 14 12 20 20 14 17 -6 -3
-11 1 -11 9 0 10 5 11 19 4 14 -8 20 -6 25 7 4 10 2 19 -5 22 -7 2 -10 8 -6
13 3 5 0 9 -7 9 -6 0 -20 9 -30 21 -9 11 -20 20 -23 20 -35 -4 -56 1 -56 14 0
8 7 15 15 15 23 0 18 28 -7 44 -25 15 -143 52 -198 61 -65 10 -60 -11 -59 308
0 9 4 17 10 17 5 0 9 7 9 15 0 25 30 76 40 70 14 -9 12 9 -2 24 -10 11 -10 13
0 7 6 -4 12 -2 12 4 0 17 36 61 44 53 3 -3 6 0 6 8 0 15 51 79 63 79 4 0 25
11 47 25 41 26 101 44 160 49 53 4 117 27 212 77 31 17 37 17 32 5 -3 -9 -11
-13 -17 -9 -5 3 -7 1 -3 -5 4 -7 22 -2 53 14 47 23 61 25 48 5z m-590 -847
c49 -9 67 -16 61 -21 -10 -11 29 -32 58 -33 16 0 26 -3 23 -7 -4 -3 -2 -12 5
-20 8 -11 7 -12 -6 -7 -9 3 -16 10 -16 14 0 4 -63 7 -140 6 l-139 -2 -7 30
c-11 52 37 64 161 40z m1046 -1614 c6 0 8 10 4 23 -5 21 -5 21 9 -2 15 -27 11
-55 -8 -44 -6 4 -5 -1 3 -10 15 -19 2 -24 -16 -6 -9 9 -10 7 -6 -9 3 -12 10
-19 16 -15 6 3 7 1 3 -5 -4 -6 -14 -8 -23 -5 -12 5 -14 3 -8 -7 5 -9 4 -11 -3
-6 -7 4 -12 1 -12 -8 0 -23 18 -28 30 -9 10 17 10 16 8 -2 -2 -12 2 -19 10
-17 6 1 11 -4 10 -10 -2 -7 2 -12 9 -11 7 2 10 -6 8 -17 -2 -11 -1 -19 3 -18
4 1 17 -3 29 -10 16 -9 24 -9 29 0 5 7 3 8 -5 3 -10 -6 -11 -3 -2 13 6 12 16
24 22 28 8 5 9 2 1 -12 -8 -15 -7 -24 6 -38 9 -11 12 -16 6 -13 -7 4 -15 0
-18 -9 -6 -15 -8 -15 -24 -2 -9 9 -23 13 -31 10 -9 -3 -11 0 -6 8 5 8 4 11 -2
7 -6 -4 -16 0 -23 8 -7 8 -9 15 -6 15 4 0 2 9 -4 20 -6 11 -20 20 -31 20 -13
0 -18 -4 -13 -12 4 -7 4 -10 0 -6 -4 3 -16 -1 -25 -10 -13 -13 -15 -21 -7 -31
8 -11 8 -13 -1 -7 -7 4 -13 3 -13 -3 0 -5 5 -13 10 -16 6 -4 8 -11 4 -16 -3
-5 -9 -7 -14 -4 -4 3 -13 -2 -19 -9 -8 -10 -9 -16 -1 -21 6 -3 7 -11 4 -17 -4
-7 -2 -8 4 -4 7 4 12 13 12 20 0 8 7 19 15 26 8 7 15 21 15 32 0 16 2 17 14 6
12 -11 11 -16 -7 -37 -22 -23 -22 -23 -1 -11 12 7 27 22 33 33 7 10 8 16 2 13
-5 -4 -12 -2 -15 3 -4 5 -2 12 3 15 14 9 41 -4 41 -20 0 -8 3 -13 8 -12 4 2
22 -3 40 -11 25 -11 30 -16 20 -23 -9 -7 -6 -8 10 -5 23 6 24 5 5 -15 -10 -12
-12 -18 -4 -13 15 9 -11 -36 -43 -74 l-21 -24 35 24 c19 13 67 51 105 85 102
88 215 176 215 167 0 -4 -26 -34 -57 -67 l-58 -59 64 52 c55 45 66 50 74 36 5
-10 4 -21 -4 -31 -10 -12 -9 -13 5 -8 23 9 21 -19 -4 -41 -11 -10 -20 -26 -20
-35 0 -10 -7 -34 -16 -55 -8 -21 -13 -44 -10 -52 4 -8 1 -11 -5 -7 -8 4 -9 -1
-4 -16 4 -12 3 -20 -1 -17 -5 3 -10 -7 -10 -21 -2 -28 37 44 83 156 12 28 26
52 31 52 5 0 17 -16 26 -35 17 -35 17 -37 -22 -138 -22 -56 -41 -106 -43 -112
-2 -5 -19 -36 -38 -68 l-34 -58 -30 58 c-40 78 -66 115 -79 107 -5 -3 -18 -25
-27 -48 l-18 -41 -89 0 c-96 0 -144 -16 -218 -73 -19 -15 -53 -38 -75 -51 -22
-14 -38 -28 -35 -32 2 -5 -16 -27 -42 -51 -50 -46 -53 -50 -84 -88 l-21 -25
20 42 c11 22 26 43 33 46 7 2 10 7 7 11 -3 4 -19 2 -35 -4 -20 -8 -25 -13 -15
-19 10 -7 9 -16 -7 -48 -24 -46 -109 -112 -207 -161 -95 -47 -175 -95 -175
-104 0 -20 -236 -321 -301 -383 -66 -64 -70 -67 -49 -30 13 22 39 63 58 90 19
28 25 41 14 30 -11 -11 -52 -68 -91 -127 -39 -58 -100 -137 -135 -175 -35 -37
-76 -83 -91 -101 -15 -18 -29 -31 -32 -28 -7 7 45 104 105 196 l55 85 -12 93
c-16 121 -35 176 -82 238 -46 61 -64 100 -88 202 -18 77 -57 172 -70 172 -4 0
-37 -15 -73 -33 -79 -40 -166 -104 -174 -129 -3 -10 -14 -18 -25 -18 -10 0
-19 -4 -19 -10 0 -24 -18 -6 -43 45 -15 31 -22 57 -17 60 6 3 10 0 10 -7 0 -7
9 -24 19 -37 18 -23 18 -23 23 -3 4 15 2 19 -9 15 -9 -4 -14 0 -12 8 4 23 -25
76 -38 72 -19 -7 -16 27 3 34 12 4 14 14 9 43 -6 33 -3 41 22 64 15 14 39 27
53 28 14 1 45 3 70 4 86 5 113 11 122 28 5 9 13 16 18 16 5 0 45 16 87 37 43
20 89 38 103 39 14 2 39 6 55 10 l30 7 -30 -33 -30 -33 37 27 c30 22 42 26 66
19 l30 -8 -64 -69 c-35 -38 -64 -71 -64 -74 0 -2 30 23 68 55 37 33 81 68 97
79 17 10 36 24 43 31 7 7 18 10 26 7 7 -3 26 0 42 6 24 9 19 1 -36 -56 l-65
-67 82 66 c48 39 89 64 97 61 8 -3 25 0 38 6 13 7 3 -6 -22 -29 -48 -43 -45
-55 5 -20 60 40 82 49 82 34 0 -8 -5 -11 -10 -8 -6 4 -7 1 -2 -6 5 -9 11 -9
17 -3 7 7 18 7 34 0 23 -11 23 -12 8 -30 -11 -12 -13 -18 -5 -18 7 0 9 -4 6
-10 -3 -5 -3 -10 2 -10 11 0 10 -81 -1 -99 -6 -10 -5 -12 2 -7 7 4 12 3 12 -3
0 -5 -12 -13 -27 -18 -24 -8 -26 -14 -30 -74 -1 -35 -10 -98 -19 -139 -15 -70
-20 -79 -69 -125 -51 -48 -53 -53 -58 -108 -3 -55 -3 -57 13 -40 9 10 49 52
89 94 65 69 73 81 77 125 2 26 10 59 17 73 15 31 61 56 85 45 30 -13 46 -13
62 -1 13 11 13 10 1 -5 -7 -10 -10 -18 -5 -18 5 0 2 -5 -6 -10 -13 -9 -13 -10
0 -10 23 0 112 59 105 70 -3 5 0 7 8 5 7 -3 39 19 73 50 32 31 53 53 45 49
-11 -6 -13 -3 -7 12 5 10 12 53 17 94 5 41 16 102 24 135 8 33 17 76 20 95 3
19 9 37 13 40 15 11 37 44 25 36 -18 -10 -16 -1 3 18 12 12 12 16 2 16 -10 0
-9 3 2 10 22 14 30 12 24 -7 -5 -15 -4 -15 4 -3 7 9 8 18 1 26 -7 8 -6 15 2
20 8 5 10 3 4 -7 -6 -11 -5 -12 5 -2 11 10 11 15 0 27 -10 13 -9 17 3 22 9 3
13 12 10 20 -3 8 -10 11 -17 7 -6 -3 -8 -3 -4 2 4 4 3 14 -4 22 -9 11 -8 13 3
11 8 -2 13 3 11 10 -1 8 2 11 7 8 5 -4 12 0 14 6 3 7 6 3 6 -9 1 -12 -3 -24
-9 -28 -15 -9 10 -54 26 -48 14 5 15 46 1 59 -10 10 -9 44 2 44 5 0 7 -10 4
-22 -4 -18 -3 -20 6 -8 8 12 10 10 9 -10 -2 -42 1 -51 15 -45 6 4 2 -2 -11
-12 -22 -18 -27 -61 -10 -79 4 -3 4 8 2 24 -3 17 0 33 5 37 7 3 8 0 5 -9 -3
-8 -2 -22 3 -30 7 -13 11 -12 22 7 13 20 13 21 -2 8 -27 -22 -20 -7 8 17 23
20 25 20 22 3 -2 -11 -9 -27 -17 -38 -13 -16 -13 -17 1 -6 9 7 18 11 21 8 2
-3 5 1 6 8 3 40 3 75 -2 95 -14 52 -14 62 -5 57 5 -4 7 -10 4 -15 -2 -4 5 -10
18 -12 17 -3 23 0 23 13 0 14 -3 15 -13 7 -10 -8 -12 -7 -7 6 3 9 10 16 14 16
5 0 12 9 15 20 4 12 11 17 18 13 23 -14 33 -10 35 13 1 13 -2 24 -8 24 -14 0
-21 -18 -10 -23 6 -3 5 -4 -1 -3 -7 1 -13 9 -15 17 -1 7 -7 29 -13 47 -6 21
-6 32 0 32 6 0 7 5 4 10 -4 6 -1 9 7 8 7 -2 12 2 11 7 -1 6 9 10 22 10 13 0
21 -4 19 -10 -3 -5 1 -2 8 8 12 17 13 17 16 -3 2 -11 8 -20 13 -20z m-1391
-207 c33 -44 39 -58 29 -69 -7 -8 -18 -13 -25 -10 -7 3 -14 0 -16 -6 -5 -15
-87 23 -113 51 -18 21 -18 24 -4 34 9 7 19 22 23 34 7 22 30 33 53 25 6 -2 30
-28 53 -59z m1984 -308 c-4 -8 -10 -12 -15 -9 -5 3 -9 0 -9 -6 0 -7 -7 -10
-14 -7 -10 4 -13 1 -9 -8 3 -8 -2 -18 -11 -21 -9 -3 -16 -10 -16 -15 0 -5 -11
-27 -25 -49 -18 -29 -25 -53 -25 -91 0 -50 -1 -51 -21 -38 -11 8 -28 28 -37
44 -9 17 -20 32 -24 33 -15 7 -8 36 18 69 14 18 30 33 35 33 6 0 25 11 43 25
26 20 67 39 113 54 1 1 0 -6 -3 -14z m94 -301 c12 -8 22 -24 22 -34 0 -17 3
-18 23 -9 29 13 79 -4 71 -25 -4 -11 6 -14 44 -14 28 0 56 -3 62 -7 7 -4 40
-8 73 -9 93 -2 83 -22 -15 -30 -91 -7 -141 -1 -159 20 -6 8 -22 14 -34 14 -26
0 -125 77 -125 97 0 17 11 16 38 -3z m-1918 -5525 c49 -39 113 -82 106 -71 -8
13 6 16 18 5 4 -5 11 -8 14 -8 4 -1 18 -7 32 -14 l25 -13 -25 23 c-13 13 -29
23 -34 21 -5 -2 -4 4 4 13 10 12 16 13 29 3 9 -7 13 -8 8 -3 -12 15 45 34 62
21 11 -8 13 -8 8 0 -7 11 17 23 56 29 9 1 18 3 20 5 8 6 36 7 32 0 -3 -5 5
-20 19 -35 20 -21 25 -23 30 -10 4 11 2 14 -6 9 -7 -4 -8 -3 -4 4 4 8 2 10 -8
6 -10 -4 -14 0 -13 15 1 18 3 19 17 6 9 -8 21 -12 26 -8 5 5 6 4 2 -1 -10 -12
11 -38 25 -29 5 3 7 1 3 -5 -3 -6 -2 -13 4 -17 6 -4 7 -11 4 -17 -4 -7 -2 -8
4 -4 6 4 9 14 6 24 -5 13 -4 14 4 4 5 -8 13 -13 18 -12 5 1 10 -4 12 -12 2 -9
0 -8 -7 2 -6 8 -11 10 -11 4 0 -6 3 -13 6 -17 9 -9 35 4 28 14 -9 15 3 10 17
-8 8 -10 9 -14 2 -10 -6 4 -14 3 -17 -2 -7 -10 13 -9 31 2 6 4 14 3 18 -3 4
-6 10 -8 15 -5 5 3 11 1 14 -4 3 -5 19 -7 36 -6 16 1 27 -1 24 -6 -3 -5 0 -9
5 -9 6 0 11 6 12 13 0 9 2 9 6 -1 4 -10 8 -10 21 0 10 8 13 9 9 1 -4 -6 -3
-14 3 -18 6 -4 8 -10 5 -15 -3 -5 0 -12 7 -16 7 -4 10 -4 6 1 -4 4 -2 15 5 23
6 9 7 13 1 9 -6 -3 -11 0 -11 8 0 11 3 12 14 3 8 -6 11 -18 8 -27 -3 -8 -3
-12 1 -8 4 4 14 1 22 -5 8 -7 5 4 -7 27 l-22 40 28 -33 c26 -31 43 -34 43 -8
0 6 -4 6 -8 -2 -6 -9 -12 -5 -20 15 -9 22 -9 24 0 11 11 -15 13 -15 25 0 12
15 12 15 6 -3 -6 -18 -5 -19 12 -5 10 8 16 10 12 4 -3 -6 0 -20 7 -30 14 -18
15 -18 27 9 9 21 15 24 20 14 10 -18 55 -14 51 4 -3 11 0 11 12 -1 9 -9 17
-28 18 -42 2 -21 5 -24 15 -16 7 6 13 16 13 22 0 6 -5 4 -11 -4 -9 -13 -10
-13 -6 0 2 8 0 24 -5 35 -7 14 -4 13 11 -5 21 -26 67 -144 75 -193 4 -23 -10
-46 -86 -140 -50 -62 -107 -133 -127 -159 -32 -42 -74 -77 -55 -46 4 7 -6 2
-23 -10 -36 -26 -49 -27 -60 -8 -4 8 -12 15 -18 15 -5 0 -11 5 -13 13 -2 9 0
8 7 -2 9 -13 11 -12 12 5 1 17 2 17 6 2 2 -9 9 -15 14 -12 5 3 7 0 6 -7 -2 -7
-2 -10 0 -5 3 4 9 7 14 7 6 0 7 -5 3 -12 -4 -7 -3 -8 5 -4 7 5 -5 22 -36 51
-27 24 -50 41 -52 39 -2 -2 6 -13 19 -24 13 -11 19 -20 15 -20 -5 0 -17 7 -27
17 -18 16 -25 7 -10 -13 4 -5 -1 -1 -10 9 -10 11 -18 16 -18 12 0 -5 -9 0 -19
9 -11 10 -17 23 -15 30 7 18 -22 41 -32 25 -4 -7 -3 -9 4 -5 6 3 13 2 16 -3
13 -20 -12 -19 -30 1 -11 12 -13 18 -5 13 10 -6 11 -2 6 16 -7 22 -7 23 11 9
17 -12 17 -12 6 0 -7 8 -17 15 -21 15 -4 0 -35 27 -69 60 -73 73 -132 124
-132 116 0 -3 -5 2 -11 12 -6 9 -14 15 -18 12 -5 -2 -11 5 -14 17 -4 12 -9 20
-12 17 -3 -4 -31 18 -63 47 -31 30 -63 52 -69 49 -7 -2 -12 -1 -10 3 1 4 -8
20 -19 35 -18 23 -23 24 -28 11 -7 -19 12 -47 25 -38 5 3 8 0 7 -8 -2 -8 6
-13 18 -12 16 0 20 -4 16 -14 -4 -11 -1 -13 8 -7 8 5 11 4 7 -2 -9 -14 29 -47
44 -37 8 5 10 3 4 -6 -5 -8 -4 -11 2 -7 6 4 18 -2 28 -13 10 -11 15 -20 11
-20 -4 0 -4 -5 0 -12 5 -8 10 -6 15 8 7 19 8 18 9 -1 2 -11 2 -23 1 -27 0 -5
3 -8 8 -8 5 0 11 3 14 8 2 4 2 1 0 -6 -1 -7 1 -10 6 -7 5 3 13 0 17 -6 4 -8 3
-9 -4 -5 -7 4 -12 3 -12 -2 0 -12 27 -23 33 -14 2 4 2 2 1 -5 -2 -7 1 -15 6
-18 6 -4 10 0 10 7 1 8 6 6 15 -6 8 -11 15 -16 15 -10 1 5 9 -1 20 -14 10 -13
21 -23 24 -22 4 0 6 -2 6 -5 0 -3 0 -12 0 -20 0 -17 -62 34 -259 208 -61 54
-111 103 -111 108 0 5 -4 8 -8 7 -9 -3 -72 47 -72 58 0 3 6 1 13 -5 8 -6 18
-7 22 -3 5 4 5 2 2 -4 -7 -13 17 -37 39 -40 16 -3 16 -2 8 20 -3 9 -10 16 -16
16 -5 0 -6 -5 -2 -12 4 -7 3 -8 -5 -4 -6 4 -9 12 -5 17 3 6 -3 13 -15 16 -12
3 -21 10 -21 15 0 5 -5 6 -12 2 -6 -4 -8 -3 -5 3 8 12 -37 46 -47 36 -8 -9 15
-34 25 -27 5 3 9 -3 9 -12 0 -18 -1 -17 -75 50 -6 5 -3 7 7 3 10 -3 20 -2 23
3 9 14 17 12 45 -11z"/>
<path d="M5910 12929 c-19 -6 -42 -13 -50 -16 -8 -4 -22 -8 -30 -9 -88 -13
-219 -94 -200 -124 8 -14 75 -8 108 9 248 129 308 134 485 40 20 -11 37 -17
37 -12 0 5 -10 13 -22 18 -13 6 -22 16 -21 22 2 7 -13 15 -33 19 -20 4 -31 10
-25 14 7 3 -13 12 -44 19 -30 7 -55 17 -55 22 0 12 -104 10 -150 -2z"/>
<path d="M5920 12734 c-84 -20 -143 -51 -168 -89 -34 -54 -26 -54 21 -1 36 41
51 50 102 62 71 16 98 18 90 4 -4 -6 6 -10 23 -10 17 0 50 -11 73 -25 46 -26
48 -32 6 -16 -81 31 -187 17 -254 -35 -19 -14 -37 -23 -40 -20 -9 9 -51 -57
-46 -71 4 -9 29 -12 88 -11 46 2 81 5 79 7 -10 11 19 28 41 23 31 -5 33 -20 3
-18 -11 0 -23 -4 -25 -9 -2 -6 11 -10 29 -10 20 1 32 6 31 13 -2 7 3 11 10 10
6 -2 11 5 11 15 -2 16 0 17 20 3 14 -9 28 -11 36 -6 9 5 20 4 28 -2 8 -7 16
-8 20 -2 11 14 87 64 99 64 17 0 22 38 7 51 -8 6 -11 16 -7 22 4 6 1 7 -7 2
-7 -4 -15 -3 -19 3 -3 5 -24 12 -46 15 -44 5 -75 16 -75 26 0 3 -10 6 -22 7
-13 0 -30 3 -38 6 -8 3 -40 0 -70 -8z"/>
<path d="M5295 12060 c-11 -18 50 -69 87 -73 19 -2 44 -13 56 -25 13 -13 26
-21 30 -18 4 2 25 7 46 10 38 6 62 16 38 16 -6 0 -9 6 -6 14 6 16 -11 29 -44
32 -14 2 -34 13 -45 25 -17 18 -21 19 -28 6 -10 -17 -42 -12 -60 9 -13 16 -65
19 -74 4z"/>
<path d="M5671 11888 c-1 -13 -9 -18 -29 -18 -15 0 -34 -6 -40 -12 -16 -16
-63 -18 -55 -3 3 5 0 5 -6 -1 -10 -9 -20 -8 -43 4 -17 8 -45 15 -61 14 -33 -1
-157 -59 -157 -74 0 -5 -4 -7 -9 -4 -5 3 -14 -9 -20 -26 -11 -30 -9 -34 13
-51 14 -10 41 -46 60 -82 54 -95 114 -123 221 -101 11 3 23 5 28 5 4 1 7 5 7
9 0 4 -15 8 -32 8 -18 0 -46 7 -62 15 -34 16 -44 49 -15 49 13 0 19 7 19 21 0
14 5 19 17 17 20 -4 30 -28 11 -28 -8 0 -15 -7 -15 -15 0 -13 3 -13 18 1 9 8
19 24 22 35 5 17 -1 19 -56 20 -95 3 -97 3 -107 19 -5 8 -10 28 -10 44 0 22 4
27 16 22 9 -4 23 -1 30 5 8 6 23 9 33 6 11 -3 21 -1 23 4 8 24 451 76 447 52
-3 -18 3 -47 8 -35 2 6 11 12 19 12 26 0 14 -41 -16 -53 -9 -4 -5 -6 9 -4 27
2 72 39 90 74 9 18 7 24 -14 41 -38 30 -197 48 -217 25 -6 -8 -33 -13 -63 -13
-43 0 -54 4 -58 18 -4 16 -5 16 -6 0z"/>
<path d="M590 9885 c0 -15 42 -75 63 -90 46 -32 146 -138 140 -148 -3 -6 -1
-7 5 -3 7 4 12 1 12 -9 0 -10 5 -13 12 -9 7 4 8 3 4 -4 -5 -9 -13 -9 -29 -1
-22 10 -22 10 0 -10 15 -12 31 -17 45 -13 15 3 19 2 14 -7 -6 -8 2 -11 28 -8
19 2 33 1 31 -3 -6 -9 20 -22 50 -25 34 -3 50 -9 62 -25 11 -13 12 -13 13 0 0
13 2 13 9 1 5 -8 16 -11 26 -7 15 5 16 4 6 -8 -9 -11 -9 -16 0 -22 7 -4 9 -3
6 3 -4 6 1 14 10 17 10 4 15 4 11 1 -4 -4 8 -20 25 -35 20 -18 36 -25 42 -19
14 14 37 11 29 -3 -5 -10 -3 -10 7 0 8 7 15 17 15 23 1 5 2 11 3 13 0 2 19 0
40 -4 30 -5 41 -4 45 6 4 10 -2 13 -17 10 -12 -2 -28 1 -34 6 -7 6 -13 8 -13
5 0 -3 -31 10 -69 28 -37 18 -97 39 -132 46 -35 6 -98 24 -139 40 -41 15 -84
31 -95 35 -19 7 -19 7 2 13 19 5 20 8 9 23 -7 10 -16 15 -19 11 -4 -3 -7 1 -7
11 0 15 -39 39 -49 30 -3 -2 8 -18 24 -34 51 -53 22 -32 -51 38 -40 37 -75 77
-79 90 -4 13 -9 21 -13 18 -3 -3 -14 1 -24 11 -10 9 -18 13 -18 8z"/>
<path d="M456 9744 c-3 -8 -2 -12 3 -9 6 3 21 -6 35 -20 14 -14 29 -26 33 -27
11 -1 84 -50 101 -65 7 -7 18 -13 23 -13 5 0 8 -5 6 -12 -1 -7 5 -12 13 -13 8
0 14 -7 12 -14 -1 -7 2 -10 8 -6 6 4 18 1 27 -7 14 -11 16 -11 8 2 -7 12 -6
13 6 3 19 -15 73 -29 189 -48 19 -3 54 -13 78 -21 24 -9 45 -14 47 -12 2 2
-35 19 -83 37 -136 51 -303 130 -352 166 -25 19 -69 43 -97 54 -44 17 -52 18
-57 5z"/>
<path d="M305 9631 c-12 -5 -27 -16 -34 -25 -12 -14 -10 -16 15 -17 25 0 26
-1 9 -9 -16 -7 -13 -9 17 -9 20 -1 38 -6 40 -12 3 -8 42 -13 108 -16 103 -4
104 -3 81 14 -13 10 -60 31 -105 46 -111 38 -108 37 -131 28z"/>
<path d="M4496 6390 c33 -67 113 -168 188 -238 32 -28 69 -71 82 -95 l26 -42
-5 35 c-9 63 -8 61 -44 104 -7 8 -13 18 -13 21 0 4 -6 12 -12 20 -7 7 -22 25
-33 41 -11 15 -24 31 -30 36 -5 5 -39 35 -75 68 -36 33 -69 60 -73 60 -5 0 -5
6 -1 13 4 6 4 9 -1 5 -4 -4 -14 0 -22 10 -8 9 -2 -8 13 -38z"/>
</g>
</svg>
