<?xml version="1.0" standalone="no"?>
<!DOCTYPE svg PUBLIC "-//W3C//DTD SVG 20010904//EN"
 "http://www.w3.org/TR/2001/REC-SVG-20010904/DTD/svg10.dtd">
<svg version="1.0" xmlns="http://www.w3.org/2000/svg"
 width="310.000000pt" height="340.000000pt" viewBox="0 0 310.000000 340.000000"
 preserveAspectRatio="xMidYMid meet">
<metadata>
Created by potrace 1.15, written by Peter Selinger 2001-2017
</metadata>
<g transform="translate(0.000000,340.000000) scale(0.100000,-0.100000)"
fill="#000000" stroke="none">
<path d="M1754 3369 c-36 -5 -68 -18 -112 -49 -54 -36 -64 -48 -73 -86 -9 -35
-17 -46 -38 -51 -108 -26 -191 -124 -204 -244 -6 -50 -4 -58 17 -78 14 -13 28
-44 36 -79 18 -82 17 -81 37 -76 19 5 38 -27 66 -118 l15 -47 -26 -4 c-27 -4
-27 -4 -4 -12 18 -6 22 -13 18 -31 -3 -12 -2 -26 4 -29 5 -3 10 2 11 12 1 10
6 2 13 -18 6 -19 19 -47 29 -62 9 -14 17 -32 17 -39 0 -21 40 -63 135 -139 98
-79 175 -149 175 -158 0 -4 -9 -12 -20 -19 -18 -11 -30 -4 -123 75 -56 49
-122 103 -147 122 l-45 33 40 -37 c22 -21 86 -76 143 -122 56 -47 102 -88 102
-91 0 -12 -100 -63 -111 -57 -5 4 -9 -1 -9 -9 0 -9 -7 -16 -15 -16 -39 0 -55
-18 -42 -47 5 -12 14 -20 18 -17 11 7 26 -24 60 -127 55 -167 86 -382 89 -613
0 -25 3 -27 23 -21 12 3 28 7 36 7 19 2 13 568 -6 583 -7 6 -20 48 -28 95 -9
47 -18 96 -21 109 -4 18 -1 22 10 18 8 -3 17 -1 19 6 9 24 26 -9 47 -93 12
-46 22 -93 23 -102 1 -10 5 -18 9 -18 9 0 8 3 -22 129 -11 46 -18 87 -15 90 3
3 25 -1 48 -9 35 -12 46 -24 66 -63 26 -54 36 -127 16 -127 -6 0 -18 26 -25
58 -15 68 -38 127 -46 119 -3 -3 -2 -12 2 -19 10 -14 43 -146 38 -150 -1 -2
-5 -139 -8 -306 l-7 -302 38 0 c47 0 87 20 91 45 3 10 10 24 17 31 10 10 16 9
32 -9 42 -48 43 -50 29 -102 -12 -47 -14 -50 -42 -48 l-29 2 33 -14 c17 -8 32
-19 32 -24 0 -7 21 -8 52 -2 4 0 -2 22 -13 48 -27 64 -19 77 10 13 13 -28 33
-58 46 -66 69 -45 339 -122 367 -105 12 7 19 7 24 0 3 -6 27 -9 53 -7 53 3 67
-13 22 -25 -35 -9 -36 -12 -16 -47 33 -58 1 -51 -37 7 -33 51 -49 58 -19 9 12
-18 21 -40 21 -47 0 -12 -2 -12 -9 0 -7 10 -10 10 -13 1 -2 -7 -12 6 -22 29
-21 44 -32 52 -32 22 0 -11 3 -18 7 -15 9 5 23 -35 15 -43 -3 -4 -6 -1 -6 6 0
7 -4 10 -8 7 -5 -3 -18 16 -31 41 -26 53 -38 53 -16 0 18 -44 18 -44 0 -44 -8
0 -21 19 -30 41 -20 49 -43 76 -59 70 -7 -3 -29 2 -49 11 -49 20 -74 20 -57 0
7 -8 9 -22 6 -31 -6 -14 -17 -16 -79 -11 -111 9 -167 28 -211 70 -32 32 -45
37 -84 38 -26 0 -63 2 -81 5 -40 5 -94 -10 -116 -33 -13 -13 -15 -12 -15 10 0
21 7 27 46 38 45 14 71 40 59 59 -4 6 -15 6 -31 0 -14 -6 -36 -10 -49 -10 -13
0 -25 -6 -28 -12 -7 -21 -16 57 -27 220 -16 248 -39 359 -114 561 -50 132 -53
145 -33 116 8 -10 16 -14 19 -9 3 5 -12 24 -33 42 l-38 34 25 -64 c78 -193 95
-243 113 -334 12 -54 26 -164 31 -244 6 -80 15 -188 21 -240 6 -52 13 -135 16
-185 3 -49 16 -133 29 -185 14 -52 27 -119 29 -150 3 -30 9 -71 15 -90 12 -43
13 -80 1 -80 -9 0 -32 124 -36 195 -2 45 -35 188 -41 182 -3 -2 2 -33 11 -68
17 -72 18 -96 4 -60 -24 60 -58 225 -64 311 -13 202 -47 510 -66 610 -28 146
-139 420 -181 446 -12 8 -7 -4 24 -48 38 -54 120 -283 138 -383 19 -102 42
-332 60 -577 9 -128 36 -269 74 -375 18 -53 32 -182 15 -143 -6 14 -17 63 -24
109 -8 46 -17 86 -21 90 -4 3 -4 -7 0 -24 3 -16 8 -68 10 -115 6 -91 2 -81
-28 90 -9 52 -32 160 -51 240 -24 102 -39 198 -50 325 -25 291 -54 500 -75
533 -9 14 -10 11 -5 -11 13 -65 35 -231 45 -352 24 -286 30 -335 59 -460 33
-149 51 -259 50 -307 l-1 -33 -9 30 c-6 17 -16 62 -24 100 l-14 70 5 -80 c3
-44 12 -102 19 -130 8 -27 16 -63 19 -80 2 -16 3 -4 3 28 -1 31 1 57 4 57 3 0
11 -33 18 -72 7 -40 24 -110 38 -156 24 -79 36 -146 50 -274 6 -60 -1 -75 -17
-35 -7 17 -9 18 -9 5 -1 -22 -17 -23 -25 -2 -3 8 -11 55 -16 104 -10 86 -15
112 -58 305 -12 50 -35 178 -52 285 -18 107 -43 251 -56 320 -13 68 -31 192
-40 275 -30 292 -67 519 -86 531 -7 4 -8 2 -4 -4 13 -21 33 -167 61 -437 8
-82 31 -249 50 -370 20 -121 45 -281 56 -355 12 -74 32 -180 46 -235 13 -55
31 -146 39 -203 8 -57 18 -122 24 -145 12 -55 12 -87 0 -87 -5 0 -10 8 -10 18
-1 16 -1 16 -11 -1 -22 -37 -26 -27 -45 113 -14 105 -37 231 -57 320 -14 58
-27 123 -31 145 -11 74 -67 429 -86 545 -11 63 -31 210 -45 325 -27 225 -37
289 -62 403 -25 120 -25 75 2 -84 13 -82 29 -196 35 -254 11 -109 66 -509 101
-735 20 -132 58 -338 84 -455 8 -36 17 -90 20 -120 4 -30 13 -87 22 -126 9
-40 13 -83 9 -99 -9 -35 -18 -26 -27 28 l-6 42 -2 -42 c-2 -59 -17 -62 -25 -5
-35 267 -44 337 -41 341 7 6 25 -47 35 -103 8 -45 9 -42 4 27 -3 44 -9 86 -14
95 -5 10 -14 33 -20 52 -9 33 -10 32 -5 -15 3 -30 2 -45 -4 -40 -14 15 -48
164 -71 310 -11 72 -33 213 -50 315 -34 216 -61 416 -90 660 -23 191 -44 301
-67 340 -9 16 -12 18 -8 5 18 -57 45 -217 60 -355 9 -85 27 -236 40 -335 14
-99 29 -218 35 -265 6 -47 31 -204 55 -349 25 -146 43 -267 41 -269 -4 -3 -18
38 -46 138 -10 34 -10 33 -5 -10 3 -25 8 -61 10 -80 5 -32 4 -31 -10 10 -28
81 -44 164 -79 396 -20 126 -44 288 -55 359 -18 115 -35 263 -56 490 -9 92
-41 259 -55 285 -14 27 -22 26 -10 -2 18 -44 41 -184 51 -303 23 -306 116
-974 163 -1184 35 -154 13 -107 -34 74 -22 88 -38 138 -36 112 3 -27 17 -96
31 -154 14 -59 24 -113 23 -122 -4 -18 -59 205 -88 354 -10 55 -31 183 -45
285 -14 102 -30 208 -35 235 -6 28 -19 154 -30 280 -19 218 -49 408 -68 427
-4 4 2 -41 14 -100 20 -102 38 -279 26 -268 -3 3 -21 -17 -40 -44 -32 -47 -72
-70 -58 -35 4 13 2 14 -14 5 -33 -18 -24 4 35 86 47 66 66 104 51 104 -2 0
-25 -31 -50 -69 -50 -77 -95 -119 -107 -100 -4 7 -14 9 -23 6 -8 -3 -18 -2
-21 3 -6 9 -76 11 -108 3 -9 -2 -15 -9 -11 -14 3 -5 10 -7 15 -3 5 3 16 0 24
-6 8 -6 23 -9 35 -5 12 4 20 2 20 -5 0 -7 8 -9 20 -5 11 3 20 2 20 -4 0 -15
-19 -31 -95 -81 -25 -16 -26 -20 -10 -20 11 1 38 14 60 30 55 40 95 62 95 52
0 -4 -6 -14 -12 -21 -13 -14 -10 -14 38 6 15 5 15 3 -1 -20 -9 -14 -25 -29
-35 -32 -9 -3 -25 -14 -35 -25 -32 -35 8 -24 54 14 23 19 50 37 60 41 10 3 37
32 59 65 l40 60 5 -33 c2 -17 5 -70 6 -117 1 -47 7 -105 12 -130 6 -24 23
-138 39 -252 37 -258 65 -426 90 -532 22 -90 25 -121 10 -96 -10 18 -60 258
-60 290 0 11 -7 23 -16 27 -14 5 -15 16 -10 62 4 33 3 50 -3 43 -5 -9 -8 7 -7
42 0 31 -5 61 -11 67 -6 6 -9 18 -6 25 9 24 -18 157 -43 211 -13 28 -24 60
-24 70 1 12 5 8 15 -12 l14 -30 -2 42 c-2 37 -5 42 -22 38 -11 -3 -14 -2 -7 1
6 3 12 17 12 30 l0 25 -30 -22 c-44 -33 -46 -17 -3 26 l38 38 -49 -37 c-79
-58 -86 -41 -11 27 37 34 66 68 64 75 -3 9 -15 3 -34 -18 -49 -50 -116 -100
-137 -100 -11 0 -17 4 -14 9 4 5 -3 7 -14 4 -11 -3 -26 2 -35 11 -9 9 -21 14
-26 11 -5 -3 -32 1 -61 10 -65 19 -156 20 -177 1 -9 -7 -37 -25 -63 -39 -43
-24 -46 -24 -51 -7 -3 12 8 27 37 48 22 17 64 49 93 72 43 35 57 41 89 38 l38
-3 -58 -38 c-32 -21 -55 -41 -52 -44 3 -3 33 13 67 36 62 41 89 50 89 31 0 -5
7 -10 15 -10 8 0 15 5 15 10 0 6 -7 10 -15 10 -8 0 -15 6 -15 13 0 8 -8 14
-17 14 -48 -1 -73 4 -73 13 0 6 7 10 15 10 8 0 15 5 15 10 0 16 -16 12 -36
-11 -10 -11 -26 -18 -36 -16 -10 3 -21 1 -24 -5 -4 -6 -10 -5 -15 3 -8 12 -11
11 -22 -1 -7 -8 -22 -20 -34 -27 -20 -12 -21 -10 -19 20 2 18 2 24 -1 15 -2
-9 -12 -22 -20 -30 -15 -11 -16 -10 -10 7 7 20 7 20 -8 1 -8 -11 -15 -25 -15
-32 0 -6 -6 -14 -14 -17 -18 -7 -27 46 -14 88 5 19 5 60 -2 111 -7 44 -12 143
-13 220 -2 133 -3 139 -22 136 -11 -2 -76 -5 -145 -8 -97 -4 -134 -2 -165 9
l-40 16 35 0 c30 1 37 6 47 32 l12 31 -31 -6 c-38 -7 -68 -33 -68 -56 0 -10
-6 -33 -14 -51 -8 -19 -17 -59 -21 -89 -3 -30 -11 -72 -16 -93 -6 -22 -12 -62
-15 -90 -2 -29 -7 -68 -10 -87 -4 -27 -1 -41 15 -59 12 -13 21 -28 21 -33 0
-5 5 -6 12 -2 7 4 8 3 4 -5 -10 -15 13 -83 25 -76 5 4 5 -3 0 -17 -4 -13 -6
-29 -4 -35 3 -7 -4 -25 -15 -40 -14 -21 -21 -52 -25 -121 -3 -54 -11 -100 -19
-110 -10 -12 -10 -14 -1 -8 8 4 13 1 13 -9 0 -8 -7 -18 -15 -21 -8 -4 -15 -15
-15 -25 0 -21 16 -26 23 -6 2 6 2 2 0 -11 -3 -17 4 -26 31 -38 19 -9 39 -29
46 -43 27 -60 74 -120 122 -155 44 -33 60 -39 132 -47 44 -5 95 -12 113 -15
18 -3 47 -1 65 5 47 17 163 38 249 47 41 3 86 14 101 22 25 15 29 15 40 0 7
-8 39 -49 70 -90 32 -42 87 -107 123 -146 36 -38 65 -75 65 -82 0 -6 5 -8 11
-4 8 5 10 -3 5 -27 -11 -52 -7 -127 9 -163 14 -30 14 -30 8 -3 -9 44 -9 52 2
52 6 0 11 -25 12 -55 10 -291 18 -420 26 -420 5 0 6 27 3 68 -4 37 -2 81 3 97
9 29 9 29 11 5 1 -23 2 -24 11 -5 7 15 8 12 4 -15 -3 -19 -7 -62 -10 -95 -4
-55 -4 -56 4 -15 12 60 39 124 40 93 1 -12 6 -23 11 -25 7 -2 5 -19 -5 -47
-17 -49 -18 -61 -7 -61 5 0 14 24 22 52 9 33 16 46 18 34 3 -15 6 -16 14 -5 6
9 7 -2 3 -34 -4 -30 -2 -47 4 -47 6 0 11 12 12 28 1 68 39 85 39 17 0 -34 4
-45 15 -45 17 0 16 25 -5 165 -5 33 -12 101 -15 150 -4 50 -10 105 -15 123 -5
17 -5 32 0 32 4 0 10 -12 13 -28 3 -15 10 -43 16 -62 10 -32 10 -31 7 23 -1
31 -1 57 0 57 15 0 54 -240 61 -372 4 -64 9 -88 18 -88 7 0 16 6 19 13 5 9 7
9 12 0 4 -10 50 -13 180 -13 l174 0 -7 33 c-3 17 -12 48 -20 67 l-13 35 6 -35
c3 -19 8 -43 10 -52 3 -10 1 -18 -4 -18 -5 0 -12 21 -16 46 -3 26 -17 81 -30
123 -13 42 -27 103 -30 136 l-7 60 15 -40 c8 -22 17 -65 20 -95 4 -30 12 -62
17 -70 9 -13 10 -12 6 2 -13 39 -20 141 -9 135 5 -4 13 -35 17 -69 9 -87 57
-258 71 -258 9 0 7 17 -7 57 -21 58 -38 217 -20 178 5 -11 10 -42 11 -70 1
-27 7 -66 15 -85 12 -34 13 -33 9 30 -3 54 -2 59 6 30 5 -19 10 -58 12 -86 2
-36 7 -50 18 -51 12 -1 15 9 13 45 l-2 47 11 -47 10 -48 75 0 75 0 -5 38 -5
37 11 -38 c8 -30 15 -37 31 -35 12 2 24 8 28 13 5 6 8 5 8 -2 0 -7 6 -13 14
-13 9 0 12 9 10 28 -4 26 -3 26 4 2 5 -16 17 -26 31 -28 21 -3 23 -1 19 32 -2
20 -1 33 3 28 4 -4 9 -18 11 -32 3 -27 38 -42 38 -17 0 8 12 48 26 89 46 131
44 347 -3 461 -9 20 -13 40 -10 44 13 12 57 -16 57 -37 0 -23 10 -28 56 -33
17 -2 44 -13 60 -24 16 -11 52 -23 79 -27 28 -3 68 -13 90 -21 51 -18 156 -19
198 -1 25 10 36 23 46 54 8 22 11 48 8 56 -4 9 -3 38 0 64 7 45 7 46 14 17 4
-17 5 1 3 40 -5 67 -30 145 -47 145 -5 0 -15 -6 -23 -14 -7 -8 -19 -16 -26
-19 -7 -2 -10 -8 -5 -12 4 -5 13 -3 19 3 7 7 17 12 22 12 6 0 4 -6 -3 -12 -6
-7 -31 -14 -54 -15 -23 -1 -68 -5 -99 -9 -54 -5 -56 -5 -51 15 4 14 1 21 -10
21 -14 0 -27 20 -27 40 0 5 12 15 28 23 27 13 29 18 17 49 -6 15 -1 17 46 11
43 -5 51 -4 44 8 -6 11 -5 11 5 2 7 -6 19 -9 26 -6 21 8 17 -11 -6 -25 -11 -7
-20 -17 -20 -22 0 -17 28 -11 42 9 13 19 14 19 37 0 23 -19 23 -20 5 -40 -10
-11 -24 -17 -31 -15 -7 3 -16 -1 -20 -8 -5 -7 -17 -18 -28 -24 -14 -8 -16 -11
-5 -12 8 0 39 15 67 33 37 22 51 37 47 47 -4 8 -12 34 -18 58 -6 24 -15 40
-19 36 -4 -4 -7 2 -7 14 0 11 -4 24 -10 27 -5 3 -10 2 -10 -4 0 -5 -12 -8 -26
-5 -22 4 -25 2 -19 -16 4 -11 2 -20 -4 -20 -6 0 -11 4 -11 10 0 5 -6 7 -14 4
-7 -3 -16 1 -19 9 -4 11 7 18 39 26 24 6 44 16 44 21 0 5 7 7 15 4 11 -5 13
-2 9 10 -6 17 -31 26 -74 28 -14 1 -33 8 -42 16 -15 12 -16 12 -12 -5 3 -11
-3 -23 -17 -32 -19 -11 -23 -11 -31 2 -11 21 -35 44 -49 49 -9 3 -9 9 -2 22 7
13 13 15 17 7 4 -6 12 -11 17 -11 5 0 2 11 -7 25 -8 13 -13 30 -9 37 4 7 -2 2
-13 -12 l-20 -24 -11 42 c-11 38 -31 59 -31 31 0 -5 -5 -7 -11 -3 -6 3 -14 2
-18 -5 -4 -6 -14 2 -25 21 -11 17 -14 28 -8 24 6 -3 12 2 15 11 3 14 7 11 17
-12 11 -28 13 -28 20 -10 12 28 13 55 1 37 -7 -11 -9 -11 -14 2 -4 9 -4 23 0
32 6 15 8 15 20 -2 7 -10 13 -28 13 -40 0 -13 5 -26 11 -30 14 -8 3 48 -17 90
-16 34 -17 39 -5 32 5 -4 7 3 4 14 -3 11 -9 18 -13 15 -4 -3 -11 5 -15 18 l-8
22 -4 -22 c-4 -21 -5 -21 -23 -3 -29 29 -43 60 -28 61 18 2 20 1 43 -6 17 -6
16 -4 -4 13 -25 20 -22 42 7 42 15 1 14 2 -2 12 -15 8 -21 8 -24 0 -7 -22 -32
-13 -32 12 0 13 -9 35 -21 50 -12 15 -18 33 -15 44 4 13 1 19 -9 19 -10 0 -13
-6 -9 -19 7 -24 -5 -60 -18 -52 -8 5 -9 -4 -5 -27 5 -24 4 -30 -3 -19 -5 8
-10 34 -10 56 0 27 -5 44 -14 47 -8 3 -17 20 -21 37 -5 24 -73 125 -124 187
-6 6 -43 21 -83 34 -40 12 -90 35 -112 51 -23 16 -42 24 -44 19 -6 -17 -22
-13 -22 5 0 9 -9 25 -20 34 -19 17 -20 23 -10 82 13 84 12 98 -5 68 -19 -33
-19 -27 6 70 11 45 18 84 16 86 -2 2 -23 -14 -47 -36 -24 -22 -45 -38 -47 -36
-5 5 19 56 57 121 16 28 29 64 29 80 0 69 19 179 33 189 8 6 18 20 23 31 8 19
9 18 13 -5 2 -14 8 -30 14 -37 6 -8 3 -29 -9 -62 -23 -65 -12 -80 46 -62 34
10 44 19 67 66 21 45 26 65 21 103 -3 32 0 56 11 77 25 48 32 217 12 270 -9
24 -8 31 4 41 22 16 11 90 -24 157 -23 45 -33 54 -72 67 -25 8 -52 20 -60 27
-7 7 -45 14 -82 17 -38 2 -71 8 -75 13 -3 4 -15 9 -26 10 -11 1 -38 6 -60 10
-22 5 -63 6 -91 2z m63 -225 c120 -24 144 -31 201 -64 56 -33 65 -57 37 -94
-8 -11 -15 -27 -15 -35 0 -13 -15 -16 -87 -17 -114 0 -173 -12 -174 -33 -1
-13 -2 -14 -5 -1 -3 9 -32 28 -66 44 -54 24 -67 27 -103 18 l-40 -10 54 -1
c74 -1 58 -12 -22 -15 -77 -2 -97 -16 -97 -65 l-1 -36 -14 34 c-20 45 -19 62
5 68 14 4 20 14 20 36 0 51 22 106 56 140 49 48 123 57 251 31z m3 -347 c14
-37 15 -45 4 -36 -23 19 -16 0 11 -33 14 -16 25 -35 25 -41 0 -7 -6 -5 -13 4
-11 15 -16 15 -37 3 -14 -7 -38 -13 -53 -14 -32 0 -67 -16 -67 -31 0 -5 10
-13 23 -18 76 -31 87 -37 87 -43 0 -3 -24 -9 -52 -13 -56 -7 -118 -25 -118
-35 0 -3 20 -18 45 -34 41 -26 52 -28 118 -25 55 3 80 9 105 27 17 13 32 20
32 15 0 -4 8 4 18 20 26 38 33 24 15 -29 -10 -31 -23 -48 -40 -55 -32 -12 -33
-12 -33 6 0 20 -9 19 -61 -4 -24 -11 -47 -17 -51 -15 -11 7 -48 -5 -48 -16 0
-5 14 -15 31 -24 27 -13 36 -14 72 -1 23 8 42 13 43 12 1 -1 4 -19 7 -39 5
-34 3 -39 -26 -56 -64 -38 -203 -35 -253 7 -28 23 -56 77 -52 102 3 17 6 16
35 -11 18 -16 34 -30 36 -30 13 0 -20 69 -37 76 -52 23 -102 145 -106 254 l-1
55 23 -22 c32 -29 94 -38 147 -19 36 12 42 12 37 0 -3 -8 -1 -14 4 -14 4 0 23
29 42 65 40 81 61 83 88 12z m347 -914 c18 -21 30 -30 27 -20 -11 32 5 17 26
-23 25 -50 35 -52 15 -4 -14 35 -14 36 5 31 11 -3 20 0 20 6 1 10 17 -7 60
-59 5 -7 6 -15 2 -20 -4 -4 -1 -4 5 0 14 8 46 -39 64 -92 13 -39 11 -43 -18
-36 -19 5 -58 76 -93 168 -8 21 -14 26 -22 18 -8 -8 2 -33 36 -93 25 -45 45
-83 43 -85 -7 -7 -26 15 -46 54 -12 24 -25 42 -27 39 -3 -3 2 -19 10 -36 22
-42 20 -50 -10 -42 -21 5 -31 19 -47 61 -11 30 -37 81 -58 113 -44 65 -40 75
8 20z m-399 -114 c56 -179 83 -307 87 -414 l4 -100 -9 95 c-5 52 -14 109 -20
125 l-10 30 6 -30 c3 -16 7 -93 9 -170 l3 -140 -8 118 c-11 145 -37 276 -86
427 -48 151 -51 169 -28 166 14 -2 27 -28 52 -107z m-1058 -275 c0 -4 -8 -13
-17 -21 -10 -8 -3 -6 16 4 22 12 35 14 38 7 2 -6 16 -9 31 -6 27 5 27 5 9 -16
-24 -27 -5 -38 28 -16 32 21 47 10 17 -12 -37 -25 -25 -35 16 -12 l37 21 -22
-23 c-11 -12 -32 -24 -45 -25 -12 -2 -40 -7 -61 -13 -48 -13 -48 1 1 21 20 9
31 16 24 16 -27 2 -121 -30 -132 -44 -7 -8 -16 -15 -21 -15 -14 0 -10 30 4 30
6 1 39 14 72 30 46 22 56 30 42 35 -9 4 -23 3 -30 -3 -6 -5 -30 -15 -52 -22
-22 -7 -44 -16 -49 -21 -16 -15 -29 -10 -22 7 5 14 4 15 -8 5 -8 -7 -12 -19
-9 -27 3 -9 -1 -14 -12 -14 -9 0 -13 5 -10 10 3 6 1 10 -5 10 -26 0 0 24 65
61 67 37 95 46 95 33z m130 -134 c0 -5 -7 -10 -16 -10 -19 0 -116 -41 -111
-47 3 -2 33 7 69 20 38 14 73 21 84 16 15 -5 10 -9 -25 -18 -70 -20 -150 -61
-157 -83 -3 -10 -18 -24 -32 -31 -15 -6 -34 -20 -43 -30 -16 -20 -17 -20 -63
2 -25 13 -44 26 -43 29 2 4 7 15 10 25 5 14 11 16 27 7 11 -6 20 -20 20 -30 0
-14 7 -20 23 -19 12 0 16 3 10 6 -15 6 -17 33 -3 33 6 0 10 -4 10 -8 0 -4 9
-8 21 -9 12 -1 19 3 16 10 -2 7 -11 11 -21 9 -9 -2 -16 1 -16 5 0 4 -3 18 -6
30 -5 20 -3 23 19 21 18 -2 23 -6 17 -14 -14 -16 0 -25 21 -13 19 10 25 1 12
-17 -5 -5 0 -1 10 9 21 23 22 37 3 37 -9 0 -12 7 -9 20 3 11 13 20 22 20 9 0
39 9 66 20 56 21 85 25 85 10z m935 -927 c10 -46 13 -51 14 -25 1 48 17 31 24
-27 3 -28 20 -97 37 -155 18 -61 30 -120 28 -143 -3 -31 -7 -20 -21 57 -11 52
-23 102 -28 110 -8 12 -9 11 -5 -5 12 -44 26 -129 26 -156 0 -40 -18 -37 -24
3 -3 18 -10 68 -16 111 -7 43 -23 109 -36 147 -21 62 -34 163 -18 147 4 -3 12
-32 19 -64z m-374 -31 l8 -47 -4 58 c-4 58 9 70 19 19 10 -48 36 -256 36 -291
0 -44 -8 -36 -26 26 -14 48 -14 48 -9 8 4 -38 3 -39 -9 -15 -21 39 -34 116
-40 225 -6 105 7 113 25 17z"/>
<path d="M575 2667 c-5 -17 -2 -35 8 -50 12 -19 13 -27 3 -45 -7 -13 -15 -19
-19 -16 -4 4 -7 2 -7 -4 0 -21 -43 -13 -70 13 -26 25 -27 25 -72 10 -25 -9
-45 -21 -45 -28 1 -41 -5 -57 -20 -57 -13 -1 -11 -5 9 -15 19 -11 28 -26 33
-56 6 -36 4 -44 -21 -70 -25 -26 -35 -30 -74 -27 l-45 3 -5 55 c-4 44 -6 50
-12 30 -4 -14 -8 -48 -8 -77 0 -42 4 -53 18 -58 28 -8 44 -50 30 -79 -21 -47
-7 -56 86 -56 96 0 139 11 130 35 -4 8 -17 18 -30 21 -24 6 -24 7 -8 33 10 14
37 46 60 71 57 59 67 74 118 177 37 75 43 94 37 128 l-6 39 -22 -28 c-26 -33
-43 -27 -43 17 0 18 -4 39 -9 46 -8 12 -11 9 -16 -12z"/>
</g>
</svg>
